<svg width="71" height="70" viewBox="0 0 71 70" fill="none" xmlns="http://www.w3.org/2000/svg">
<rect x="0.5" width="70" height="70" rx="35" fill="#38CB89" fill-opacity="0.1"/>
<path d="M48 43.75V47.5H23V43.75C23 43.0625 23.5625 42.5 24.25 42.5H46.75C47.4375 42.5 48 43.0625 48 43.75Z" fill="#1D925D" stroke="#1D925D" stroke-width="1.5" stroke-miterlimit="10" stroke-linecap="round" stroke-linejoin="round"/>
<path d="M29.25 33.75H26.75V42.5H29.25V33.75Z" fill="#1D925D"/>
<path d="M34.25 33.75H31.75V42.5H34.25V33.75Z" fill="#1D925D"/>
<path d="M39.25 33.75H36.75V42.5H39.25V33.75Z" fill="#1D925D"/>
<path d="M44.25 33.75H41.75V42.5H44.25V33.75Z" fill="#1D925D"/>
<path d="M49.25 48.4375H21.75C21.2375 48.4375 20.8125 48.0125 20.8125 47.5C20.8125 46.9875 21.2375 46.5625 21.75 46.5625H49.25C49.7625 46.5625 50.1875 46.9875 50.1875 47.5C50.1875 48.0125 49.7625 48.4375 49.25 48.4375Z" fill="#1D925D"/>
<path d="M47.2125 27.1875L35.9625 22.6875C35.7125 22.5875 35.2875 22.5875 35.0375 22.6875L23.7875 27.1875C23.35 27.3625 23 27.875 23 28.35V32.5C23 33.1875 23.5625 33.75 24.25 33.75H46.75C47.4375 33.75 48 33.1875 48 32.5V28.35C48 27.875 47.65 27.3625 47.2125 27.1875ZM35.5 30.625C34.4625 30.625 33.625 29.7875 33.625 28.75C33.625 27.7125 34.4625 26.875 35.5 26.875C36.5375 26.875 37.375 27.7125 37.375 28.75C37.375 29.7875 36.5375 30.625 35.5 30.625Z" fill="#1D925D"/>
</svg>
