<svg width="38" height="38" viewBox="0 0 38 38" fill="none" xmlns="http://www.w3.org/2000/svg">
<rect width="38" height="38" rx="19" fill="black" fill-opacity="0.1"/>
<path d="M27.3332 25.3333V27.8333H10.6665V25.3333C10.6665 24.875 11.0415 24.5 11.4998 24.5H26.4998C26.9582 24.5 27.3332 24.875 27.3332 25.3333Z" fill="#54565B" stroke="#54565B" stroke-width="1.5" stroke-miterlimit="10" stroke-linecap="round" stroke-linejoin="round"/>
<path d="M14.8332 18.6667H13.1665V24.5H14.8332V18.6667Z" fill="#54565B"/>
<path d="M18.1667 18.6667H16.5V24.5H18.1667V18.6667Z" fill="#54565B"/>
<path d="M21.5002 18.6667H19.8335V24.5H21.5002V18.6667Z" fill="#54565B"/>
<path d="M24.8332 18.6667H23.1665V24.5H24.8332V18.6667Z" fill="#54565B"/>
<path d="M28.1668 28.4583H9.8335C9.49183 28.4583 9.2085 28.175 9.2085 27.8333C9.2085 27.4917 9.49183 27.2083 9.8335 27.2083H28.1668C28.5085 27.2083 28.7918 27.4917 28.7918 27.8333C28.7918 28.175 28.5085 28.4583 28.1668 28.4583Z" fill="#54565B"/>
<path d="M26.8082 14.2917L19.3082 11.2917C19.1415 11.225 18.8582 11.225 18.6915 11.2917L11.1915 14.2917C10.8998 14.4083 10.6665 14.75 10.6665 15.0667V17.8333C10.6665 18.2917 11.0415 18.6667 11.4998 18.6667H26.4998C26.9582 18.6667 27.3332 18.2917 27.3332 17.8333V15.0667C27.3332 14.75 27.0998 14.4083 26.8082 14.2917ZM18.9998 16.5833C18.3082 16.5833 17.7498 16.025 17.7498 15.3333C17.7498 14.6417 18.3082 14.0833 18.9998 14.0833C19.6915 14.0833 20.2498 14.6417 20.2498 15.3333C20.2498 16.025 19.6915 16.5833 18.9998 16.5833Z" fill="#54565B"/>
</svg>
