<svg xmlns="http://www.w3.org/2000/svg" width="385" height="179" fill="none" viewBox="0 0 385 179">
  <g clip-path="url(#a)">
    <rect width="385" height="178" y=".333" fill="#292D32" rx="18.667"/>
    <g opacity=".1">
      <path fill="#38CB89" d="M287.794 194.388c42.062-13.371 54.809-74.274 55.915-103.239-48.077-12.687-70.78-41.4-70.78-50.748 32.719 33.387 61.432 30.048 70.78 34.055.092-18.697-3.339-34.055-11.352-50.749-8.012-16.693-25.374-51.415-32.051-74.118-10.016-3.34-26.709-9.349-42.067-30.716 18.696 17.36 36.057 19.364 42.067 19.364-6.677-24.706-2.671-71.448 4.006-102.164C301.642-24.37 334.361-13.018 340.37 3.675c9.082-20.833 33.61-34.054 44.739-38.06-6.455 3.115-21.635 14.422-30.716 34.722-11.352 25.374 8.013 30.715 11.351 98.157 2.671 53.953-30.743 79.268-48.994 88.839-8.901 1.765-19.84 4.563-28.956 7.055-.28.089-.561.176-.843.26-28.612 8.584-17.626 4.789.843-.26Z"/>
      <circle cx="213.5" cy="-1.667" r="213.676" stroke="#38CB89" stroke-width="12.019"/>
    </g>
  </g>
  <defs>
    <clipPath id="a">
      <rect width="385" height="178" y=".333" fill="#fff" rx="18.667"/>
    </clipPath>
  </defs>
</svg>
