<svg width="37" height="36" viewBox="0 0 37 36" fill="none" xmlns="http://www.w3.org/2000/svg">
<rect x="0.71582" width="36" height="36" rx="18" fill="#1D925D" fill-opacity="0.12"/>
<path d="M24.7158 24.6666H12.7158C12.4425 24.6666 12.2158 24.4399 12.2158 24.1666C12.2158 23.8932 12.4425 23.6666 12.7158 23.6666H24.7158C24.9892 23.6666 25.2158 23.8932 25.2158 24.1666C25.2158 24.4399 24.9892 24.6666 24.7158 24.6666Z" fill="#76AD94"/>
<path d="M23.3957 12.3199C22.1024 11.0265 20.8357 10.9932 19.509 12.3199L18.7024 13.1265C18.6357 13.1932 18.609 13.2999 18.6357 13.3932C19.1424 15.1599 20.5557 16.5732 22.3224 17.0799C22.349 17.0865 22.3757 17.0932 22.4024 17.0932C22.4757 17.0932 22.5424 17.0665 22.5957 17.0132L23.3957 16.2065C24.0557 15.5532 24.3757 14.9199 24.3757 14.2799C24.3824 13.6199 24.0624 12.9799 23.3957 12.3199Z" fill="#76AD94"/>
<path d="M21.1224 17.686C20.929 17.5927 20.7424 17.4993 20.5624 17.3927C20.4157 17.306 20.2757 17.2127 20.1357 17.1127C20.0224 17.0393 19.889 16.9327 19.7624 16.826C19.749 16.8193 19.7024 16.7793 19.649 16.726C19.429 16.5393 19.1824 16.2993 18.9624 16.0327C18.9424 16.0193 18.909 15.9727 18.8624 15.9127C18.7957 15.8327 18.6824 15.6993 18.5824 15.546C18.5024 15.446 18.409 15.2993 18.3224 15.1527C18.2157 14.9727 18.1224 14.7927 18.029 14.606C17.9067 14.3438 17.5625 14.2659 17.3579 14.4705L13.609 18.2193C13.5224 18.306 13.4424 18.4727 13.4224 18.586L13.0624 21.1393C12.9957 21.5927 13.1224 22.0193 13.4024 22.306C13.6424 22.5393 13.9757 22.666 14.3357 22.666C14.4157 22.666 14.4957 22.6593 14.5757 22.646L17.1357 22.286C17.2557 22.266 17.4224 22.186 17.5024 22.0993L21.2574 18.3443C21.4579 18.1438 21.3826 17.7987 21.1224 17.686Z" fill="#76AD94"/>
</svg>
