<svg xmlns="http://www.w3.org/2000/svg" width="40" height="40" fill="none" viewBox="0 0 40 40">
  <path fill="#fff" d="M20.147 3.53c-8.967 0-16.275 7.308-16.275 16.276s7.308 16.276 16.275 16.276c8.968 0 16.276-7.308 16.276-16.276S29.115 3.531 20.147 3.531Zm6.51 17.497h-5.289v5.29a1.23 1.23 0 0 1-1.22 1.22 1.23 1.23 0 0 1-1.221-1.22v-5.29h-5.29a1.23 1.23 0 0 1-1.22-1.22 1.23 1.23 0 0 1 1.22-1.222h5.29v-5.29c0-.666.553-1.22 1.22-1.22a1.23 1.23 0 0 1 1.221 1.22v5.29h5.29c.667 0 1.22.554 1.22 1.221a1.23 1.23 0 0 1-1.22 1.22Z"/>
</svg>
