<svg xmlns="http://www.w3.org/2000/svg" width="222" height="222" fill="none" viewBox="0 0 222 222">
  <path fill="#1157B9" d="M131.408 129.149v44.65c0 3.734-3.054 6.789-6.788 6.789H96.679c-3.734 0-6.789-3.055-6.789-6.789v-44.65h1.461v43.358c0 .896.733 1.629 1.63 1.629h35.338c.896 0 1.629-.733 1.629-1.629v-43.358h1.46Z"/>
  <path fill="#1157B9" d="M96.679 104.46h27.941c3.734 0 6.788 3.054 6.788 6.788v38.741h-1.46v-37.448c0-.896-.733-1.629-1.629-1.629H92.98c-.896 0-1.629.733-1.629 1.629v37.448h-1.46v-38.741c0-3.734 3.054-6.788 6.788-6.788Z"/>
  <path fill="#BED9FF" d="M98.306 158.83h24.687a2.412 2.412 0 0 1 2.405 2.404v7.764a2.412 2.412 0 0 1-2.405 2.404H98.306a2.411 2.411 0 0 1-2.404-2.404v-7.764a2.411 2.411 0 0 1 2.404-2.404Z" opacity=".232"/>
  <path fill="#BED9FF" d="M98.306 136.954h24.687a2.412 2.412 0 0 1 2.405 2.404v7.764a2.412 2.412 0 0 1-2.405 2.404H98.306a2.411 2.411 0 0 1-2.404-2.404v-7.764a2.411 2.411 0 0 1 2.404-2.404Z" opacity=".902"/>
  <path fill="#BED9FF" d="M98.306 120.226h24.687a2.411 2.411 0 0 1 2.405 2.403v7.764a2.412 2.412 0 0 1-2.405 2.404H98.306a2.411 2.411 0 0 1-2.404-2.404v-7.764a2.41 2.41 0 0 1 2.404-2.403Z"/>
  <path fill="#DEECFF" d="M105.603 30.178h7.536c.413 0 .75.337.75.75v12.42c0 .413-.337.75-.75.75h-7.536a.752.752 0 0 1-.75-.75v-12.42c0-.413.337-.75.75-.75Z"/>
  <path fill="#009587" d="M106.947 31.967a.923.923 0 1 1 0 1.846.923.923 0 0 1 0-1.846Zm0 2.833a.923.923 0 1 1 0 1.845.923.923 0 0 1 0-1.846Z"/>
  <path fill="#F44236" d="M106.947 37.631a.923.923 0 1 1 0 1.846.923.923 0 0 1 0-1.846Z"/>
  <path fill="#FFC107" d="M106.947 40.463a.923.923 0 1 1 0 1.846.923.923 0 0 1 0-1.846Z"/>
  <path fill="#DEECFF" d="M125.125 63.776h8.437a1.32 1.32 0 0 1 1.317 1.317v14.421a1.32 1.32 0 0 1-1.317 1.317h-8.437a1.32 1.32 0 0 1-1.317-1.317V65.093a1.32 1.32 0 0 1 1.317-1.317ZM69.46 48.902h21.535c1.161 0 2.112.95 2.112 2.112v34.984c0 1.162-.95 2.112-2.112 2.112H69.459V48.902Z"/>
  <path fill="#009587" d="M67.655 48.902h1.804V88.11h-1.804V48.902Z"/>
  <path fill="#BED9FF" d="M74.776 54.875H87.79c.61 0 1.109.5 1.109 1.11v2.534c0 .61-.5 1.109-1.11 1.109H74.777c-.61 0-1.109-.5-1.109-1.109v-2.535c0-.61.5-1.109 1.11-1.109Zm-.001 7.503h8.543c.61 0 1.108.498 1.108 1.108v2.537a1.11 1.11 0 0 1-1.108 1.108h-8.543a1.11 1.11 0 0 1-1.108-1.108v-2.536c0-.61.498-1.109 1.108-1.109Zm0 7.504h10.356c.61 0 1.108.498 1.108 1.108v2.536a1.11 1.11 0 0 1-1.108 1.108H74.775a1.11 1.11 0 0 1-1.108-1.108V70.99c0-.61.498-1.108 1.108-1.108Zm-.001 7.503h7.577c.61 0 1.108.498 1.108 1.108v2.536a1.11 1.11 0 0 1-1.108 1.109h-7.577a1.11 1.11 0 0 1-1.108-1.109v-2.536c0-.61.498-1.108 1.108-1.108Z"/>
  <path fill="#1157B9" d="M111.917 15.28c8.081 0 14.899 5.417 17.021 12.82a11.486 11.486 0 0 1 1.949-.165c6.286 0 11.381 5.1 11.381 11.39 0 6.29-5.095 11.39-11.381 11.39H95.592c-.454.041-.914.061-1.38.061-8.381 0-15.174-6.799-15.174-15.187 0-8.387 6.793-15.186 15.175-15.186 1.595 0 3.134.247 4.579.704a17.655 17.655 0 0 1 13.125-5.827Z"/>
</svg>
