<svg xmlns="http://www.w3.org/2000/svg" width="24" height="24" fill="none" viewBox="0 0 24 24">
  <path fill="#4285F4" fill-rule="evenodd" d="M18.957 11.974c0-.52-.047-1.02-.134-1.5h-6.91v2.838h3.949a3.375 3.375 0 0 1-1.464 2.214v1.84h2.37c1.388-1.276 2.189-3.157 2.189-5.392Z" clip-rule="evenodd"/>
  <path fill="#34A853" fill-rule="evenodd" d="M11.913 19.144c1.98 0 3.642-.657 4.855-1.777l-2.37-1.841c-.658.44-1.498.7-2.485.7-1.911 0-3.529-1.29-4.106-3.024h-2.45v1.9a7.334 7.334 0 0 0 6.556 4.042Z" clip-rule="evenodd"/>
  <path fill="#FBBC05" fill-rule="evenodd" d="M7.808 13.202c-.147-.44-.23-.91-.23-1.395 0-.483.083-.953.23-1.393V8.513H5.357a7.334 7.334 0 0 0-.78 3.294c0 1.184.283 2.305.78 3.295l2.45-1.9Z" clip-rule="evenodd"/>
  <path fill="#EA4335" fill-rule="evenodd" d="M11.913 7.389c1.077 0 2.044.37 2.804 1.097l2.105-2.105c-1.27-1.183-2.932-1.91-4.91-1.91a7.334 7.334 0 0 0-6.556 4.042l2.451 1.9c.577-1.734 2.195-3.024 4.106-3.024Z" clip-rule="evenodd"/>
</svg>
