<svg xmlns="http://www.w3.org/2000/svg" xmlns:xlink="http://www.w3.org/1999/xlink" width="428" height="187" fill="none" viewBox="0 0 428 187">
  <mask id="a" width="430" height="236" x="-1" y="2" maskUnits="userSpaceOnUse" style="mask-type:alpha">
    <path fill="#fff" fill-rule="evenodd" d="M-.44 2.33h429.01V238H-.44V2.33Z" clip-rule="evenodd"/>
  </mask>
  <g mask="url(#a)">
    <path fill="#005757" fill-rule="evenodd" d="M383.56-3.992c5.967 1.457 11.891 3.176 17.864 4.97l.194-.455c-5.439-3.11-11.174-5.7-17.078-7.857l-.313-.11c-1.377-.487-2.756-.975-4.147-1.425l-4.526-1.342c-3.042-.802-6.105-1.551-9.202-2.144a105.198 105.198 0 0 0-18.804-1.902 135.788 135.788 0 0 0-18.855 1.165c-12.473 1.642-24.761 5.101-35.99 10.832C287.11.63 281.795 4.075 276.954 8.1c-4.834 4.034-9.122 8.736-12.62 13.96l.398.288 1.453-1.827.725-.912.777-.869 1.554-1.731c.346-.359.701-.71 1.056-1.06.196-.194.393-.388.587-.584.765-.803 1.593-1.54 2.42-2.274.328-.292.656-.584.98-.88.364-.338.754-.647 1.144-.956h.001l.001-.001c.215-.17.43-.34.64-.516.219-.172.435-.348.651-.523a28.27 28.27 0 0 1 1.163-.913c4.937-3.699 10.289-6.792 15.872-9.326 11.148-5.143 23.218-8.02 35.36-9.126l4.565-.313 4.571-.147 4.571.046c.974.032 1.948.081 2.922.13.547.029 1.095.056 1.642.08a221.45 221.45 0 0 1 18.161 1.887c2.767.35 5.511.86 8.258 1.373l.773.144 4.5.914c1.488.357 2.981.709 4.481 1.043Zm-617.642 317.268c-7.837 6.935-14.63 15.026-19.247 24.271a70.455 70.455 0 0 0-4.84 9.958c-2.076 5.341-3.453 10.953-4.153 16.641a81.38 81.38 0 0 0-.585 8.575 85.208 85.208 0 0 0 3.639 25.456c3.344 10.995 8.946 21.278 16.224 30.177 3.639 4.453 7.681 8.582 12.105 12.269 2.19 1.871 4.512 3.581 6.869 5.238.391.254.778.513 1.165.772.81.543 1.621 1.086 2.463 1.579l1.848 1.125 1.888 1.055c5.04 2.812 10.409 5.033 15.936 6.736 5.541 1.659 11.279 2.726 17.066 3.098 5.786.392 11.576.093 17.284-.532 5.712-.63 11.346-1.619 16.938-2.646 1.199-.222 2.397-.447 3.594-.672h.001l.001-.001h.002c9.948-1.87 19.839-3.729 29.762-3.883 11.065-.227 22.156 2.028 32.25 6.486 10.13 4.455 19.219 11.087 27.303 18.753 8.1 7.683 15.274 16.367 22.022 25.381 6 8.03 11.676 16.336 17.369 24.667l.003.005.036.052.204.3.84 1.227 1.037 1.518c6.41 9.367 12.91 18.737 20.036 27.71 3.572 4.478 7.299 8.857 11.28 13.029 1.998 2.079 4.036 4.126 6.169 6.085a137.778 137.778 0 0 0 6.563 5.665 146.123 146.123 0 0 0 29.226 18.448c10.433 4.957 21.483 8.679 32.864 10.843 11.371 2.177 23.074 2.806 34.636 1.639 11.556-1.159 22.96-4.152 33.554-8.98 10.604-4.807 20.35-11.454 28.777-19.436 8.465-7.975 15.529-17.225 21.773-26.824 5.498-8.437 10.414-17.163 15.304-25.842l.001-.001v-.001l.001-.001v-.001h.001l.001-.001v-.001l.001-.001v-.001l.001-.001c6.246-11.086 12.448-22.094 19.762-32.323 3.26-4.537 6.729-8.937 10.481-13.015 3.754-4.074 7.83-7.854 12.239-11.191 8.8-6.692 18.849-11.729 29.535-14.552 5.349-1.4 10.808-2.314 16.321-2.582 5.515-.286 11.069-.005 16.591.688 11.061 1.392 21.944 4.389 32.839 7.474l2.08.59h.001c10.217 2.901 20.537 5.831 31.194 7.529 5.683.907 11.454 1.453 17.249 1.446 5.792-.002 11.604-.57 17.286-1.779a89.913 89.913 0 0 0 16.512-5.321c5.298-2.318 10.372-5.111 15.187-8.273 9.607-6.377 18.158-14.178 25.742-22.742 7.612-8.556 14.28-17.878 20.303-27.557 3.012-4.842 5.839-9.795 8.523-14.817a304.899 304.899 0 0 0 7.652-15.266 319.542 319.542 0 0 0 22.089-64.46c2.522-11.091 4.464-22.314 5.739-33.614 1.281-11.298 1.975-22.665 1.959-34.037.003-11.371-.663-22.744-2.059-34.03-1.367-11.289-3.423-22.499-6.247-33.519a258.342 258.342 0 0 0-4.759-16.384c-1.771-5.407-3.75-10.744-5.877-16.021a246.547 246.547 0 0 0-6.947-15.592 240.65 240.65 0 0 0-8.064-15.05c-22.881-39.395-57.23-72.102-97.879-93.015-10.157-5.229-20.696-9.737-31.535-13.393-10.824-3.685-21.963-6.546-33.312-8.29-11.345-1.73-22.921-2.293-34.422-1.282-2.873.264-5.74.607-8.593 1.066a122.81 122.81 0 0 0-8.503 1.701c-5.619 1.38-11.154 3.098-16.5 5.53-5.319 2.414-10.308 5.418-15.052 8.7-4.743 3.292-9.234 6.883-13.585 10.602-6.765 5.795-13.173 11.917-19.553 18.012h-.001l-.001.002-.008.007-.002.002-.002.002a1645.76 1645.76 0 0 1-5.452 5.193c-8.218 7.765-16.536 15.403-25.615 21.916-4.543 3.235-9.261 6.211-14.234 8.617-2.483 1.205-5.019 2.29-7.612 3.194a60.648 60.648 0 0 1-7.92 2.16c-5.358 1.101-10.866 1.284-16.299.715a63.288 63.288 0 0 1-8.073-1.492 75.846 75.846 0 0 1-7.852-2.575c-9.454-3.702-18.255-9.051-27.109-14.432l-.006-.003a2389.4 2389.4 0 0 0-2.51-1.524c-9.727-5.894-19.67-11.56-30.115-16.28-10.428-4.712-21.392-8.49-32.777-10.39-2.829-.486-5.74-.81-8.554-1.07-2.83-.272-5.675-.528-8.538-.697-5.72-.344-11.54-.333-17.292.517-5.75.823-11.384 2.496-16.663 4.878-2.65 1.202-5.165 2.546-7.68 3.926a105.582 105.582 0 0 0-7.35 4.494C-14.92 58.797-19.41 62.5-23.3 66.785c-3.908 4.265-7.166 9.122-9.67 14.314-2.537 5.183-4.333 10.683-5.612 16.263-1.3 5.582-2.023 11.265-2.475 16.947-.474 5.683-.442 11.412-.313 17.079.138 5.681.398 11.354.75 17.021.33 5.262.738 10.519 1.227 15.768-36.248 4.887-64.197 35.971-64.197 73.593 0 1.728.064 3.44.18 5.139a45.825 45.825 0 0 0-3.869-.175c-14.469 0-27.357 6.739-35.728 17.245a31.987 31.987 0 0 0-20.112-7.083c-8.136 0-15.559 3.031-21.222 8.018a41.47 41.47 0 0 0-10.083-1.243 41.266 41.266 0 0 0-17.506 3.881c-3.326-6.334-9.96-10.656-17.605-10.656-4.95 0-9.473 1.815-12.954 4.811-1.887-2.894-5.145-4.811-8.856-4.811-5.841 0-10.576 4.74-10.576 10.587 0 5.846 4.735 10.586 10.576 10.586.67 0 1.323-.07 1.958-.189.464 8.671 6.473 15.862 14.54 18.097a41.51 41.51 0 0 0 .764 21.299Zm194.703-166.784c.176-5.601.61-11.192 1.382-16.757 3.824-27.55 17.505-55.398 42.044-68.447 13.41-7.13 29.105-9.312 44.216-7.821 23.88 2.356 45.992 13.385 66.724 25.476 1.3.758 2.598 1.521 3.896 2.285 9.513 5.596 19.066 11.214 29.479 14.806 37.399 12.899 64.825-12.217 92.154-37.244 16.67-15.267 33.305-30.5 52.144-37.05 28.073-9.762 59.185-7.11 87.73 1.168 48.187 13.973 91.603 43.927 121.798 84.031 62.273 82.71 57.506 195.753 7.535 283.258-18.405 32.229-44.971 63.046-81.059 71.606-23.429 5.558-45.264-.465-67.041-6.471-19.99-5.513-39.931-11.013-61.012-7.531-20.298 3.353-37.912 13.47-51.735 28.681-11.356 12.495-19.982 27.158-28.553 41.727l-.578.984-.11.186-.993 1.686c-9.136 15.5-18.649 31.042-31.528 43.598-45.368 44.227-115.263 35.531-161.177-2.876-15.504-12.97-28.405-31.009-41.432-49.225-24.237-33.891-48.91-68.391-91.596-71.978-12.89-1.083-25.615 1.272-38.38 3.635-13.359 2.473-26.763 4.954-40.451 3.512-34.166-3.599-64.584-30.671-72.151-64.215-2.141-9.495-2.564-19.453-.862-29.013a69.167 69.167 0 0 0-1.779 9.83 80.085 80.085 0 0 0-.445 8.396 83.227 83.227 0 0 0 3.93 24.815c3.421 10.662 8.957 20.624 16.14 29.198 3.586 4.29 7.558 8.258 11.89 11.786 2.143 1.792 4.413 3.423 6.712 5.003.389.246.774.498 1.159.75.783.512 1.565 1.023 2.378 1.486l1.797 1.069 1.837.998c4.899 2.664 10.097 4.744 15.426 6.323 5.342 1.533 10.842 2.493 16.381 2.788 11.118.615 22.258-1.324 33.342-3.495 1.229-.239 2.46-.481 3.693-.723 9.9-1.947 19.938-3.921 30.273-4.173 11.625-.33 23.32 1.946 34.013 6.566 5.349 2.3 10.436 5.174 15.21 8.459a102.907 102.907 0 0 1 6.944 5.213 119.025 119.025 0 0 1 6.514 5.704c8.416 7.892 15.79 16.73 22.682 25.827 6.111 8.081 11.857 16.385 17.582 24.66l.001.001 2.184 3.155c6.461 9.306 12.924 18.576 19.939 27.35 7.022 8.768 14.602 17 23.317 23.932 17.344 13.978 38.04 23.89 59.88 28.08 10.91 2.094 22.104 2.695 33.126 1.588 11.019-1.101 21.854-3.943 31.916-8.522 10.067-4.568 19.328-10.862 27.408-18.437 8.095-7.568 14.951-16.447 21.099-25.821 5.378-8.17 10.237-16.721 15.122-25.318l.001-.001.003-.004.001-.002c6.323-11.128 12.689-22.33 20.277-32.877 3.374-4.658 6.956-9.172 10.901-13.429 3.946-4.249 8.237-8.199 12.888-11.691 9.278-7.005 19.914-12.288 31.192-15.219 5.63-1.454 11.423-2.399 17.248-2.661 5.819-.283 11.641.047 17.369.798 11.474 1.512 22.533 4.638 33.433 7.785l1.126.326 1.364.394c10.064 2.912 20.077 5.809 30.272 7.52 5.512.925 11.068 1.493 16.622 1.53 5.552.042 11.097-.457 16.525-1.566a86.701 86.701 0 0 0 15.88-4.947c5.119-2.179 10.045-4.825 14.742-7.841 9.372-6.086 17.807-13.612 25.338-21.947 7.557-8.325 14.236-17.451 20.281-26.969 3.022-4.763 5.864-9.641 8.569-14.599a303.157 303.157 0 0 0 7.726-15.081c19.486-40.756 30.308-85.833 30.386-131.105.055-22.615-2.606-45.266-8.268-67.165-5.6-21.905-14.242-43.045-25.765-62.483-23.023-38.904-57.48-70.824-97.753-91.035-10.069-5.05-20.497-9.382-31.198-12.866-10.69-3.516-21.645-6.203-32.746-7.79-11.093-1.588-22.345-2.09-33.454-1.042-2.774.272-5.54.619-8.286 1.076a119.21 119.21 0 0 0-8.173 1.684c-5.382 1.364-10.729 3.032-15.711 5.31-10.035 4.607-19.064 11.374-27.581 18.674-6.442 5.547-12.634 11.43-18.85 17.338l-.013.012-.008.007-.005.005a1571.735 1571.735 0 0 1-6.009 5.69c-8.284 7.782-16.739 15.52-26.129 22.22-4.701 3.33-9.62 6.42-14.872 8.943-2.622 1.264-5.312 2.407-8.079 3.364a65.054 65.054 0 0 1-8.491 2.291c-5.765 1.17-11.733 1.354-17.573.698a67.434 67.434 0 0 1-8.639-1.647 79.682 79.682 0 0 1-8.294-2.772c-9.768-3.897-18.633-9.353-27.367-14.729l-.013-.008a1536.88 1536.88 0 0 0-2.76-1.696c-9.631-5.926-19.427-11.537-29.622-16.268-10.188-4.712-20.833-8.477-31.838-10.413-2.76-.496-5.489-.826-8.32-1.112-2.814-.296-5.619-.572-8.418-.763-5.593-.39-11.18-.405-16.674.334-5.494.72-10.862 2.245-15.95 4.468-5.056 2.286-10.06 4.983-14.726 8.029-4.682 3.05-9.048 6.57-12.834 10.646a60.36 60.36 0 0 0-5.244 6.475c-1.594 2.279-3.004 4.687-4.264 7.172-2.53 4.971-4.367 10.297-5.705 15.744-1.36 5.447-2.16 11.037-2.697 16.647-.579 5.616-.534 11.25-.461 16.916.087 5.045.271 10.09.531 15.133ZM50.24 34.687a78.464 78.464 0 0 0-8.458-1.187 66.605 66.605 0 0 1-1.491-.1c-.914-.066-1.826-.133-2.745-.135l-2.114-.071-2.115.007a52.566 52.566 0 0 0-2.618.053c-.535.02-1.069.04-1.601.05-.9.025-1.8.093-2.7.16-.502.039-1.003.077-1.505.107l-4.184.416c-.5.074-1.002.142-1.502.21H19.2c-.885.12-1.768.239-2.647.392-5.52.886-10.964 2.116-16.285 3.764-5.328 1.624-10.482 3.85-15.265 6.717-4.775 2.873-9.178 6.383-12.99 10.477-3.807 4.096-7.052 8.75-9.545 13.816-2.514 5.057-4.325 10.474-5.592 16.032l-.828 4.204a62.375 62.375 0 0 0-.366 2.692c-.063.52-.126 1.041-.197 1.56l-.278 2.133-.137 2.146-.274 4.301h-.492l-.002-4.334.002-2.172.141-2.166c.039-.492.071-.986.103-1.479v-.002c.063-.953.126-1.907.23-2.856l.607-4.315c.98-5.729 2.53-11.398 4.855-16.796 2.364-5.377 5.553-10.41 9.385-14.904 3.836-4.494 8.343-8.418 13.276-11.682 4.926-3.278 10.261-5.923 15.797-8.006 5.548-2.059 11.352-3.389 17.209-4.03.957-.104 1.917-.17 2.876-.236.51-.035 1.018-.07 1.526-.111l.06-.003c1.45-.057 2.9-.115 4.349-.126 2.94.06 5.876.134 8.79.516 2.917.284 5.804.88 8.648 1.545 2.827.771 5.624 1.665 8.245 2.946l-.162.467ZM383.446 486.62a123.325 123.325 0 0 0 34.147 3.465c11.428-.358 22.789-2.22 33.651-5.573 5.427-1.69 10.722-3.772 15.791-6.276 5.077-2.481 10.003-5.219 14.728-8.275a87.429 87.429 0 0 0 6.898-4.865l1.674-1.292c.361-.275.702-.572 1.044-.868.191-.165.381-.331.575-.492l1.613-1.375 1.558-1.435a87.146 87.146 0 0 0 11.316-12.851l.427.235c-2.193 5.438-5.427 10.484-9.263 14.998l-1.444 1.696-1.545 1.599-.178.181-.134.138-.237.247-.001.002h-.001c-.331.346-.663.692-1.014 1.016l-1.628 1.519c-.787.763-1.633 1.453-2.479 2.144-.303.247-.607.495-.908.746-.763.656-1.57 1.252-2.377 1.848-.386.285-.772.57-1.154.862-4.821 3.465-10.043 6.342-15.479 8.642a125.625 125.625 0 0 1-16.713 5.627c-11.345 2.98-23.046 4.381-34.697 4.253-11.644-.221-23.264-1.917-34.303-5.444l.133-.472ZM67.168 614.231c-14.608-5.909-28.268-14.258-40.471-24.444l-.321.373c11.735 10.818 25.252 19.722 39.836 26.341 14.614 6.537 30.356 10.729 46.437 11.859a122.88 122.88 0 0 0 24.183-.624c8.033-1.034 15.964-3.075 23.499-6.107 15.068-6.061 28.597-15.865 38.793-28.25l-.348-.347c-6.066 5.179-12.407 9.898-19.115 13.943-.784.516-1.609.965-2.433 1.413l-.105.057-2.554 1.435c-.428.235-.843.491-1.281.708l-1.312.646-2.622 1.29-.068.033-.13.063-.075.037-.041.021-.107.053-.086.043-.006.003-.238.118c-.186.092-.372.183-.561.267l-1.337.584-2.671 1.17c-.856.398-1.743.725-2.629 1.051l-.076.028-2.727 1.019a130.218 130.218 0 0 1-22.473 5.889c-7.654 1.323-15.469 1.813-23.271 1.516-15.611-.609-31.127-4.208-45.69-10.188ZM-268.286 391.87a80.43 80.43 0 0 0 2.182 13.812 75.83 75.83 0 0 0 4.607 13.12c3.79 8.452 9.114 16.173 15.562 22.758a76.04 76.04 0 0 0 10.514 8.918 127.018 127.018 0 0 0 11.626 7.344c.632.38 1.284.72 1.937 1.061.366.191.732.382 1.095.58.574.311 1.164.588 1.754.865.452.212.904.425 1.35.653.661.328 1.337.624 2.013.92.382.167.764.334 1.143.508.539.23 1.082.448 1.627.667h.001v.001h.002c.53.213 1.06.426 1.588.651 4.33 1.686 8.807 3.072 13.431 4.277l-.054.483c-4.815.177-9.67-.391-14.404-1.494l-.262-.066-.248-.062-.361-.088-.004-.001-.002-.001h-.003c-.888-.219-1.778-.437-2.65-.71-.407-.132-.815-.258-1.224-.385h-.003c-.754-.234-1.51-.468-2.253-.737a78.932 78.932 0 0 1-6.755-2.816 62.524 62.524 0 0 1-12.316-7.838 89.824 89.824 0 0 1-10.441-10.1c-6.39-7.242-11.489-15.554-14.936-24.461-3.378-8.929-5.135-18.418-5.007-27.846l.491-.013Zm155.218-183.744c-.555 9.184.726 18.349 3.342 27.012l.474-.124c-.927-4.409-1.558-8.863-1.826-13.324-.256-4.462-.138-8.934.45-13.331 1.091-8.797 3.969-17.32 8.539-24.774.366-.589.752-1.166 1.137-1.742v-.001c.221-.331.442-.661.659-.994l1.941-2.627.412-.492.003-.004.003-.004.001-.002a155.51 155.51 0 0 1 1.684-1.992c.273-.285.541-.575.81-.863v-.001c.47-.506.94-1.012 1.427-1.498a83.756 83.756 0 0 1 9.827-8.454l1.305-.97c.284-.202.574-.393.865-.585l.485-.322 1.36-.9.334-.197c.357-.21.714-.421 1.065-.642.896-.581 1.832-1.089 2.771-1.599l.066-.036c.628-.358 1.272-.68 1.92-1.003v-.001h.001c.334-.167.668-.334 1-.506 3.953-1.931 8.109-3.52 12.443-4.897l-.074-.485c-4.588-.007-9.197.783-13.635 2.175l-.23.074-.368.118c-.91.291-1.824.582-2.7.964l-.01.003v.001l-.003.001c-1.08.429-2.165.859-3.212 1.37-.41.187-.815.385-1.22.583h-.001l-.363.177-1.54.845-.197.109-.339.186v.001c-.336.184-.672.368-1 .563l-1.496.93a49.145 49.145 0 0 0-10.62 9.205 64.437 64.437 0 0 0-7.912 11.559c-4.436 8.205-6.945 17.329-7.578 26.494Zm-2.844 27.012c-2.882-4.622-5.027-9.709-6.76-14.925a90.847 90.847 0 0 1-2.15-7.981 93.955 93.955 0 0 1-1.344-8.186c-.321-2.753-.61-5.524-.729-8.323-.105-2.796.067-5.616.584-8.393.515-2.775 1.304-5.52 2.45-8.127 1.147-2.592 2.7-5.083 4.782-6.987l.403.277a49.438 49.438 0 0 0-1.899 7.741c-.428 2.577-.707 5.161-.911 7.757l-.59 7.816c-.208 2.621-.312 5.274-.207 7.924.1 2.65.317 5.304.652 7.946a87.961 87.961 0 0 0 1.309 7.895 75.53 75.53 0 0 0 4.838 15.333l-.428.233Zm-161.47 173.33c.528-5.92 1.789-11.794 3.5-17.579l-.483-.163c-2.494 5.558-4.319 11.408-5.554 17.4a87.94 87.94 0 0 0-.498 2.94h-.001c-.083.53-.167 1.06-.256 1.589a87.74 87.74 0 0 0-.334 2.988v.001c-.054.528-.107 1.056-.165 1.585a97.675 97.675 0 0 0-.136 3.018v.001a169.09 169.09 0 0 1-.059 1.585c-.004 1.009.02 2.02.043 3.032.012.528.024 1.057.032 1.586l.306 4.624.537 4.62c.282 1.526.595 3.051.954 4.565a92.187 92.187 0 0 0 1.456 4.443c.615 1.439 1.23 2.875 1.897 4.285.74 1.382 1.484 2.757 2.282 4.099.86 1.314 1.76 2.601 2.673 3.866l.135.163.001.001c.964 1.16 1.921 2.313 2.971 3.395l.441-.248c-.397-1.394-.882-2.722-1.363-4.041l-.108-.296-.308-.932c-.37-1.12-.737-2.233-1.14-3.324a147.105 147.105 0 0 0-1.358-4.229 193.195 193.195 0 0 0-1.243-4.225l-.561-2.121c-.123-.457-.258-.911-.393-1.366a89.392 89.392 0 0 1-.217-.737 102.244 102.244 0 0 0-1.142-4.232l-1.019-4.278-.024-.133v-.001c-.245-1.398-.491-2.801-.691-4.21-.049-.536-.102-1.072-.156-1.609-.092-.925-.185-1.852-.254-2.782-.017-.53-.039-1.06-.061-1.592-.04-.94-.079-1.881-.09-2.823.01-.531.013-1.062.017-1.594.006-.945.012-1.891.05-2.837.039-.528.073-1.057.106-1.586.06-.949.12-1.9.213-2.848Z" clip-rule="evenodd"/>
  </g>
  <path fill="url(#b)" d="M.444.612h428.63v236.814H.444z"/>
  <defs>
    <pattern id="b" width="1" height="1" patternContentUnits="objectBoundingBox">
      <use xlink:href="#c" transform="scale(.00089 .00161)"/>
    </pattern>
  </defs>
</svg>
