<svg xmlns="http://www.w3.org/2000/svg" width="29" height="29" fill="none" viewBox="0 0 29 29">
  <path stroke="#292D32" stroke-linecap="round" stroke-miterlimit="10" stroke-width="1.75" d="M14.333 8.18v3.885M14.357 3a7.767 7.767 0 0 0-7.77 7.77v2.45c0 .793-.327 1.983-.736 2.66L4.37 18.353c-.91 1.529-.28 3.232 1.4 3.792a27.23 27.23 0 0 0 17.185 0 2.59 2.59 0 0 0 1.4-3.792l-1.482-2.473c-.408-.677-.735-1.878-.735-2.66v-2.45C22.126 6.5 18.626 3 14.356 3Z"/>
  <path stroke="#292D32" stroke-miterlimit="10" stroke-width="1.75" d="M18.218 22.623a3.899 3.899 0 0 1-3.885 3.885 3.892 3.892 0 0 1-2.741-1.143c-.7-.7-1.144-1.68-1.144-2.742"/>
  <circle cx="20.75" cy="5.917" r="4.083" fill="#F1C061"/>
</svg>
