<svg xmlns="http://www.w3.org/2000/svg" width="71" height="70" fill="none" viewBox="0 0 71 70">
  <rect width="70" height="70" x=".5" fill="#38CB89" fill-opacity=".1" rx="35"/>
  <path fill="#1D925D" d="M46.712 21.25h-3.675c-1.087 0-1.887.45-2.25 1.25-.2.363-.287.788-.287 1.288v3.674c0 1.588.95 2.538 2.538 2.538h3.675c.5 0 .925-.087 1.287-.288.8-.362 1.25-1.162 1.25-2.25v-3.674c0-1.588-.95-2.538-2.538-2.538Zm1.175 4.913a.808.808 0 0 1-.512.224h-1.763v.638l.013 1.1a.79.79 0 0 1-.237.538.738.738 0 0 1-.513.212.752.752 0 0 1-.75-.75v-1.75l-1.75.012a.763.763 0 0 1-.75-.762c0-.413.337-.75.75-.75l1.1.012h.65v-1.75c0-.412.337-.762.75-.762s.75.35.75.762l-.013.888v.85h1.763c.413 0 .75.337.75.75a.85.85 0 0 1-.237.538ZM31.75 32.975a2.975 2.975 0 1 0 0-5.95 2.975 2.975 0 0 0 0 5.95Z"/>
  <path fill="#1D925D" d="M46.712 30h-.587v5.763l-.163-.138c-.975-.837-2.55-.837-3.525 0l-5.2 4.462c-.974.838-2.55.838-3.525 0l-.425-.35c-.887-.775-2.3-.85-3.3-.175L25.314 42.7c-.275-.7-.438-1.513-.438-2.463V29.762c0-3.524 1.863-5.387 5.387-5.387H40.5v-.587c0-.5.087-.925.288-1.288H30.263c-4.55 0-7.263 2.712-7.263 7.262v10.475c0 1.363.238 2.55.7 3.55 1.075 2.376 3.375 3.713 6.563 3.713h10.474c4.55 0 7.263-2.712 7.263-7.263V29.712c-.362.2-.788.288-1.288.288Z"/>
</svg>
