<svg xmlns="http://www.w3.org/2000/svg" width="29" height="29" fill="none" viewBox="0 0 29 29">
  <path stroke="silver" stroke-linecap="round" stroke-linejoin="round" stroke-miterlimit="10" stroke-width="1.733" d="M14.651 18.163a3.465 3.465 0 1 0 0-6.93 3.465 3.465 0 0 0 0 6.93Z"/>
  <path stroke="silver" stroke-linecap="round" stroke-linejoin="round" stroke-miterlimit="10" stroke-width="1.733" d="M3.1 15.714v-2.033c0-1.201.983-2.194 2.195-2.194 2.091 0 2.946-1.479 1.895-3.292a2.194 2.194 0 0 1 .808-2.992L9.996 4.06c.913-.543 2.091-.22 2.634.693l.127.22c1.04 1.813 2.749 1.813 3.8 0l.127-.22c.543-.913 1.721-1.236 2.634-.693l1.998 1.143c1.05.6 1.409 1.952.808 2.992-1.05 1.813-.196 3.292 1.895 3.292 1.2 0 2.194.982 2.194 2.194v2.033a2.201 2.201 0 0 1-2.194 2.195c-2.091 0-2.946 1.478-1.895 3.292a2.19 2.19 0 0 1-.808 2.991l-1.998 1.144c-.913.543-2.091.22-2.634-.693l-.127-.22c-1.04-1.813-2.749-1.813-3.8 0l-.127.22c-.543.912-1.721 1.235-2.634.693l-1.998-1.144a2.193 2.193 0 0 1-.808-2.991c1.05-1.814.196-3.292-1.895-3.292a2.201 2.201 0 0 1-2.194-2.195Z"/>
</svg>
