<svg xmlns="http://www.w3.org/2000/svg" width="83" height="38" fill="none" viewBox="0 0 83 38">
  <path fill="#292D32" d="M19.02 23.835c-.84 0-1.555-.15-2.143-.448a4.985 4.985 0 0 1-1.498-1.176l1.246-1.204c.336.392.71.69 1.12.896.42.205.882.308 1.386.308.57 0 .999-.122 1.288-.364.29-.252.434-.588.434-1.008 0-.327-.093-.593-.28-.798-.186-.206-.536-.355-1.05-.448l-.924-.14c-1.95-.308-2.926-1.256-2.926-2.842 0-.439.08-.836.238-1.19a2.6 2.6 0 0 1 .714-.91 3.19 3.19 0 0 1 1.106-.574 4.87 4.87 0 0 1 1.484-.21c.738 0 1.382.121 1.932.364.55.242 1.022.602 1.414 1.078l-1.26 1.19a2.901 2.901 0 0 0-.882-.728c-.345-.187-.78-.28-1.302-.28-.532 0-.933.102-1.204.308-.261.196-.392.476-.392.84 0 .373.108.648.322.826.215.177.56.308 1.036.392l.91.168c.99.177 1.718.494 2.184.952.476.448.714 1.078.714 1.89 0 .466-.084.891-.252 1.274a2.71 2.71 0 0 1-.714.98c-.308.27-.69.48-1.148.63-.448.149-.966.224-1.554.224Zm9.888-7.476h1.68l-2.94 8.61c-.093.261-.2.485-.322.672a1.568 1.568 0 0 1-.406.476 1.56 1.56 0 0 1-.574.266 3.255 3.255 0 0 1-.784.084h-1.078v-1.428H25.8l.336-1.022-2.618-7.658h1.778l1.274 3.864.476 1.848h.084l.504-1.848 1.274-3.864Zm2.862 7.308v-7.308h1.792v1.218h.07c.149-.392.382-.719.7-.98.326-.271.774-.406 1.344-.406.756 0 1.334.247 1.736.742.401.494.602 1.199.602 2.114v4.62h-1.792v-4.438c0-.523-.094-.915-.28-1.176-.187-.262-.495-.392-.924-.392a1.8 1.8 0 0 0-.546.084 1.413 1.413 0 0 0-.462.224 1.092 1.092 0 0 0-.322.364.962.962 0 0 0-.126.504v4.83H31.77Zm11.114.168c-.541 0-1.022-.089-1.442-.266a2.842 2.842 0 0 1-1.064-.77 3.544 3.544 0 0 1-.644-1.204 5.32 5.32 0 0 1-.224-1.596c0-.588.075-1.116.224-1.582a3.39 3.39 0 0 1 .644-1.19 2.84 2.84 0 0 1 1.064-.77c.42-.178.9-.266 1.442-.266.737 0 1.344.163 1.82.49.485.326.835.779 1.05 1.358l-1.47.658a1.465 1.465 0 0 0-.476-.756c-.224-.206-.532-.308-.924-.308-.504 0-.882.158-1.134.476-.243.317-.364.732-.364 1.246v1.33c0 .513.121.928.364 1.246.252.308.63.462 1.134.462.43 0 .76-.108.994-.322.233-.224.415-.5.546-.826l1.372.658c-.243.644-.611 1.129-1.106 1.456-.495.317-1.097.476-1.806.476Z"/>
  <path stroke="#292D32" stroke-linecap="round" stroke-linejoin="round" stroke-miterlimit="10" stroke-width="1.4" d="M59.939 19.367h1.692v3.937c0 .584.72.856 1.108.418l4.142-4.705a.633.633 0 0 0-.477-1.05h-1.691v-3.938a.633.633 0 0 0-1.109-.418l-4.141 4.706a.633.633 0 0 0 .476 1.05Z"/>
  <rect width="80.833" height="36.167" x="1.417" y=".583" stroke="#383838" stroke-width="1.167" rx="8.75"/>
</svg>
