<svg xmlns="http://www.w3.org/2000/svg" width="26" height="26" fill="none" viewBox="0 0 26 26">
  <rect width="24.03" height="24.03" x="1.136" y=".794" fill="#fff" rx="12.015"/>
  <path fill="#1D925D" d="M19.493 16.79a4.092 4.092 0 0 1-2.791 1.073h-.07c.23-.476.354-1.012.354-1.58a3.836 3.836 0 0 0-3.835-3.835 3.836 3.836 0 0 0-3.835 3.835c0 .568.123 1.104.353 1.58H8.197c-3.59-.253-3.59-5.476 0-5.729h.038c-2.462-6.849 7.922-9.587 9.111-2.393 3.32.422 4.663 4.847 2.147 7.048Z" opacity=".4"/>
  <path fill="#1D925D" d="M13.151 12.449a3.836 3.836 0 0 0-3.835 3.834c0 .568.123 1.105.353 1.58.062.138.13.268.207.391a3.805 3.805 0 0 0 3.275 1.864 3.805 3.805 0 0 0 3.275-1.864 3.16 3.16 0 0 0 .207-.39 3.62 3.62 0 0 0 .353-1.58 3.836 3.836 0 0 0-3.835-3.835Zm1.588 3.504-1.634 1.511a.585.585 0 0 1-.391.154.569.569 0 0 1-.407-.17l-.759-.758a.579.579 0 0 1 0-.813.579.579 0 0 1 .813 0l.368.368 1.227-1.135a.579.579 0 0 1 .813.03.58.58 0 0 1-.03.813Z"/>
  <rect width="24.03" height="24.03" x="1.136" y=".794" stroke="#1D925D" stroke-width=".511" rx="12.015"/>
</svg>
