<svg xmlns="http://www.w3.org/2000/svg" width="202" height="167" fill="none" viewBox="0 0 202 167">
  <g opacity=".2">
    <path fill="#38CB89" d="M76.68 146.047c36.054-11.461 46.98-63.663 47.928-88.49-41.21-10.875-60.67-35.486-60.67-43.5 28.046 28.618 52.657 25.756 60.67 29.19.079-16.025-2.862-29.19-9.73-43.498-6.868-14.309-21.75-44.07-27.473-63.53-8.585-2.862-22.894-8.013-36.058-26.328 16.026 14.88 30.907 16.598 36.058 16.598-5.723-21.177-2.29-61.241 3.434-87.569-2.29 119.62 25.756 129.35 30.907 143.659 7.784-17.858 28.808-29.19 38.347-32.624-5.533 2.67-18.544 12.363-26.328 29.762-9.73 21.75 6.868 26.328 9.73 84.135 2.289 46.246-26.351 67.944-41.995 76.148-7.63 1.513-17.006 3.911-24.82 6.047-.24.076-.48.151-.722.223-24.525 7.358-15.108 4.105.722-.223Z"/>
    <circle cx="13" cy="-22" r="183.151" stroke="#38CB89" stroke-width="10.302"/>
  </g>
</svg>
