<svg xmlns="http://www.w3.org/2000/svg" width="26" height="26" fill="none" viewBox="0 0 26 26">
  <rect width="24.235" height="24.235" x="1.034" y=".66" fill="#fff" rx="12.117"/>
  <path fill="#C81107" d="M19.698 16.962a4.092 4.092 0 0 1-2.792 1.074h-.069c.23-.476.353-1.012.353-1.58a3.836 3.836 0 0 0-3.835-3.835 3.836 3.836 0 0 0-3.834 3.835c0 .568.123 1.105.353 1.58H8.4c-3.59-.253-3.59-5.476 0-5.729h.038C5.977 5.458 16.361 2.72 17.55 9.914c3.32.422 4.663 4.847 2.147 7.048Z" opacity=".4"/>
  <path fill="#C81107" d="M13.356 12.622a3.836 3.836 0 0 0-3.835 3.834c0 .568.123 1.105.353 1.58.061.138.13.269.207.391a3.805 3.805 0 0 0 3.275 1.864 3.805 3.805 0 0 0 3.274-1.864 3.16 3.16 0 0 0 .207-.39 3.62 3.62 0 0 0 .353-1.58 3.836 3.836 0 0 0-3.834-3.835Zm1.15 5.07a.568.568 0 0 1-.406.168.569.569 0 0 1-.407-.169l-.406-.406-.422.421a.569.569 0 0 1-.407.17.569.569 0 0 1-.406-.17.579.579 0 0 1 0-.813l.422-.421-.407-.407a.579.579 0 0 1 0-.813.579.579 0 0 1 .813 0l.407.407.383-.384a.579.579 0 0 1 .813 0 .579.579 0 0 1 0 .813l-.383.384.406.406a.58.58 0 0 1 0 .813Z"/>
  <rect width="24.235" height="24.235" x="1.034" y=".66" stroke="#C81107" stroke-width=".307" rx="12.117"/>
</svg>
