<svg xmlns="http://www.w3.org/2000/svg" width="25" height="24" fill="none" viewBox="0 0 25 24">
  <path fill="#fff" d="M9.583 1.944a4.622 4.622 0 0 0-4.618 4.619c0 2.498 1.954 4.52 4.501 4.608a.786.786 0 0 1 .214 0h.069A4.606 4.606 0 0 0 14.2 6.563a4.622 4.622 0 0 0-4.618-4.619Zm4.939 11.813c-2.712-1.808-7.136-1.808-9.868 0-1.235.826-1.915 1.944-1.915 3.14 0 1.196.68 2.304 1.905 3.121 1.361.914 3.15 1.37 4.94 1.37 1.788 0 3.577-.456 4.938-1.37 1.225-.826 1.906-1.935 1.906-3.14-.01-1.196-.68-2.304-1.906-3.121Zm5.746-6.621a3.48 3.48 0 0 1-3.043 3.763h-.049c-.058 0-.116 0-.165.019-.943.049-1.808-.253-2.46-.807a4.449 4.449 0 0 0 1.459-3.694 4.513 4.513 0 0 0-.749-2.12 3.492 3.492 0 0 1 5.007 2.839Z"/>
  <path fill="#fff" d="M22.212 16.13c-.077.942-.68 1.759-1.691 2.313-.973.535-2.198.788-3.413.758.7-.631 1.108-1.419 1.186-2.255.098-1.206-.476-2.363-1.623-3.286a8.028 8.028 0 0 0-2.236-1.225c2.148-.623 4.851-.204 6.513 1.137.895.72 1.352 1.624 1.264 2.557Z"/>
</svg>
