<svg xmlns="http://www.w3.org/2000/svg" width="110" height="151" fill="none" viewBox="0 0 110 151">
  <path fill="#38CB89" d="M25.68 146.047c36.054-11.461 46.98-63.663 47.928-88.49-41.21-10.875-60.67-35.486-60.67-43.5 28.046 28.618 52.657 25.756 60.67 29.19.079-16.025-2.862-29.19-9.73-43.498-6.868-14.309-21.75-44.07-27.473-63.53C27.82-66.643 13.511-71.794.347-90.11c16.026 14.88 30.907 16.598 36.058 16.598-5.723-21.177-2.29-61.241 3.434-87.569C37.55-41.46 65.595-31.73 70.746-17.421c7.784-17.858 28.808-29.19 38.347-32.624-5.533 2.67-18.544 12.363-26.328 29.762-9.73 21.75 6.868 26.328 9.73 84.135C94.785 110.098 66.144 131.796 50.5 140c-7.628 1.513-17.005 3.911-24.819 6.047-.24.076-.48.151-.722.223-24.525 7.358-15.108 4.105.723-.223Z"/>
</svg>
